<svg id="Capa_1" enable-background="new 0 0 511.926 511.926" height="512" viewBox="0 0 511.926 511.926" width="512" xmlns="http://www.w3.org/2000/svg"><g><path d="m189.823 150.543c-4.142 0-7.5 3.357-7.5 7.5s3.358 7.5 7.5 7.5h132.28c4.143 0 7.5-3.357 7.5-7.5s-3.357-7.5-7.5-7.5z"/><path d="m406.863 379.792c16.24-6.761 18.665-16.086 18.665-21.043 0-18.033-27.901-27.468-55.463-27.468-13.777 0-26.846 2.281-36.797 6.425-16.24 6.762-18.665 16.086-18.665 21.043 0 18.033 27.9 27.468 55.462 27.468 13.777 0 26.846-2.281 36.798-6.425zm-77.26-21.043c0-3.618 14.179-12.468 40.462-12.468s40.463 8.85 40.463 12.468-14.18 12.468-40.463 12.468-40.462-8.849-40.462-12.468z"/><path d="m504.836 304.982c-5.027-12.553-10.858-25.349-16.498-37.724-3.944-8.654-7.944-17.45-11.737-26.288 13.293-7.923 21.572-22.227 21.572-38.095v-48.029c0-40.896-33.271-74.166-74.166-74.166h-64.09c1.962-7.932 1.183-16.376-2.469-24.099-5.558-11.752-16.607-19.457-29.557-20.611-11.128-.994-21.904 3.101-29.572 11.22l-22.353 23.669c-5.241 5.55-12.39 8.989-19.946 9.684-7.669-.669-14.778-4.091-20.059-9.684l-22.353-23.67c-7.669-8.12-18.449-12.203-29.572-11.218-12.919 1.15-23.956 8.83-29.523 20.543-3.677 7.737-4.466 16.208-2.499 24.166h-25.629c-4.142 0-7.5 3.357-7.5 7.5s3.358 7.5 7.5 7.5h126.797c12.47 0 24.859-5.172 33.689-14.522l22.353-23.669c4.495-4.761 10.819-7.158 17.335-6.577 7.592.676 14.069 5.193 17.328 12.083 3.245 6.861 2.642 14.695-1.603 20.978-.015.022-.028.046-.043.068-.002.003-.004.007-.006.01-9.234 13.543-24.533 21.629-40.925 21.629h-213.391c-13.133 0-25.479 5.114-34.766 14.4s-14.4 21.633-14.4 34.766v48.03c0 5.403 2.209 10.455 6.105 14.111-1.18 3.284-2.418 6.573-3.713 9.864-1.456-1.04-2.833-2.211-4.112-3.528-5.34-5.501-8.28-13.004-8.28-21.128v-47.349c0-32.624 26.542-59.166 59.166-59.166h8.479c4.142 0 7.5-3.357 7.5-7.5s-3.358-7.5-7.5-7.5h-8.479c-40.895 0-74.166 33.271-74.166 74.166v47.349c0 12.047 4.445 23.261 12.518 31.576 2.738 2.82 5.772 5.217 9.057 7.19-3.793 8.84-7.794 17.636-11.738 26.291-5.64 12.377-11.472 25.175-16.5 37.73-11.099 27.713-9.094 58.549 5.5 84.603 14.813 26.445 40.268 44.5 69.833 49.535.349.06.698.124 1.046.188l.698.129c.451.081.899.12 1.342.12 3.558 0 6.717-2.542 7.372-6.168.736-4.076-1.971-7.978-6.047-8.714l-.628-.115c-.419-.078-.838-.155-1.262-.228-25.078-4.271-46.68-19.607-59.267-42.078-12.368-22.08-14.068-48.212-4.663-71.696 4.898-12.23 10.657-24.866 16.225-37.086 7.723-16.948 15.489-34.05 21.679-51.254 1.204-.057 2.412-.222 3.611-.512 9.858-2.374 16.708-6.807 22.753-10.718 8.38-5.423 15.618-10.105 30.88-10.105s22.5 4.684 30.88 10.105c9.064 5.865 19.337 12.513 39.03 12.513 19.69 0 29.962-6.647 39.025-12.513 8.379-5.423 15.615-10.105 30.875-10.105 15.261 0 22.498 4.684 30.877 10.105 9.062 5.865 19.335 12.513 39.025 12.513 19.691 0 29.968-6.646 39.035-12.508 4.474-2.894 8.699-5.626 13.964-7.495 3.903-1.385 5.944-5.673 4.56-9.576-1.387-3.905-5.677-5.946-9.577-4.559-6.918 2.455-12.09 5.8-17.091 9.033-8.385 5.422-15.627 10.104-30.891 10.104-15.261 0-22.497-4.683-30.876-10.105-9.063-5.865-19.336-12.513-39.027-12.513-19.69 0-29.962 6.647-39.024 12.513-8.379 5.423-15.616 10.105-30.875 10.105-15.263 0-22.5-4.684-30.881-10.105-9.063-5.865-19.337-12.513-39.029-12.513s-29.965 6.647-39.029 12.512c-5.767 3.731-10.747 6.954-18.118 8.729-1.711.407-2.98-.324-3.584-.801-1.066-.84-1.678-2.097-1.678-3.448v-48.03c0-9.126 3.554-17.706 10.007-24.159s15.033-10.007 24.159-10.007h336.087c18.839 0 34.166 15.327 34.166 34.166v48.029c0 1.352-.612 2.609-1.679 3.449-.604.477-1.869 1.212-3.585.801-7.368-1.776-12.349-4.997-18.117-8.727-6.966-4.504-14.861-9.609-27.241-11.612-4.084-.669-7.94 2.115-8.602 6.205-.662 4.089 2.116 7.94 6.205 8.602 9.273 1.501 14.937 5.163 21.493 9.402 6.045 3.908 12.896 8.338 22.748 10.712 1.199.29 2.407.454 3.611.512 6.239 17.34 14.069 34.556 21.682 51.26 5.567 12.218 11.325 24.852 16.224 37.08 9.404 23.484 7.705 49.616-4.663 71.696-12.587 22.471-34.189 37.808-59.268 42.078-13.489 2.297-25.504 5.584-36.732 10.05-44.586 17.729-89.767 26.719-134.286 26.719s-89.699-8.99-134.288-26.72c-.301-.12-.605-.234-.909-.348l-.5-.189c-3.864-1.499-8.207.423-9.703 4.284-1.496 3.862.422 8.206 4.285 9.702l.656.249c.211.079.423.158.631.24 46.358 18.435 93.403 27.781 139.828 27.781s93.47-9.347 139.829-27.781c10.24-4.072 21.267-7.082 33.707-9.2 29.569-5.035 55.023-23.09 69.837-49.535 14.594-26.051 16.599-56.888 5.501-84.601zm-336.776-242.028c3.263-6.866 9.732-11.367 17.306-12.041 6.521-.585 12.84 1.814 17.336 6.575l21.902 23.192h-56.784c-2.512-5.616-2.476-12.013.24-17.726zm255.946 42.726h-81.328c3.532-2.951 6.767-6.296 9.636-10h71.692c32.624 0 59.166 26.542 59.166 59.166v48.029c0 9.731-4.703 18.568-12.387 23.989-1.297-3.295-2.537-6.588-3.719-9.877 3.896-3.657 6.106-8.708 6.106-14.112v-48.029c0-27.11-22.055-49.166-49.166-49.166z"/></g></svg>