<svg id="Capa_1" enable-background="new 0 0 512.001 512.001" height="512" viewBox="0 0 512.001 512.001" width="512" xmlns="http://www.w3.org/2000/svg"><g><path d="m160.823 96.458v-5.145c0-4.143-3.357-7.5-7.5-7.5s-7.5 3.357-7.5 7.5v5.145c0 4.143 3.357 7.5 7.5 7.5s7.5-3.357 7.5-7.5z"/><path d="m366.177 96.458v-5.145c0-4.143-3.357-7.5-7.5-7.5s-7.5 3.357-7.5 7.5v5.145c0 4.143 3.357 7.5 7.5 7.5s7.5-3.357 7.5-7.5z"/><path d="m419.947 418.13c-.264-10.008-.742-20.514-1.424-31.226-.263-4.133-3.789-7.274-7.962-7.008-4.134.263-7.271 3.827-7.008 7.961.669 10.527 1.141 20.845 1.399 30.667.683 26.052-20.207 47.497-46.276 47.497-26.064 0-46.96-21.439-46.274-47.497 1.339-50.926 8.078-109.684 18.853-165.926 9.116 3.033 18.269 4.553 27.422 4.553 9.151 0 18.303-1.52 27.417-4.551 6.651 34.721 11.802 70.606 15.101 105.561.389 4.124 4.053 7.157 8.172 6.762 4.124-.39 7.151-4.048 6.762-8.172-4.754-50.364-13.118-100.66-23.255-144.868-2.935-12.795-13.751-21.917-26.698-22.83v-16.236c9.829-3.174 16.96-12.407 16.96-23.279 0-8.87-4.746-16.65-11.831-20.94l16.748-21.428c6.115-7.821 6.114-18.746 0-26.566l-21.877-27.991v-8.149c8.935-3.11 15.363-11.618 15.363-21.6.001-12.607-10.256-22.864-22.862-22.864s-22.862 10.257-22.862 22.863c0 4.143 3.357 7.5 7.5 7.5s7.5-3.357 7.5-7.5c0-4.336 3.527-7.863 7.862-7.863 4.336 0 7.863 3.527 7.863 7.863s-3.527 7.863-7.863 7.863c-4.143 0-7.5 3.357-7.5 7.5v14.385l-21.877 27.991c-6.113 7.821-6.113 18.747 0 26.567l16.748 21.429c-7.084 4.289-11.83 12.07-11.83 20.939 0 10.871 7.131 20.104 16.959 23.279v16.237c-12.948.914-23.764 10.035-26.697 22.83-15.54 67.769-25.407 142.942-27.071 206.247-.692 26.315 15.127 48.455 36.929 57.885v11.645c0 13.422 10.919 24.341 24.34 24.341 13.422 0 24.341-10.919 24.341-24.341v-11.646c21.862-9.457 37.619-31.63 36.928-57.884zm-78.829-328.291 17.559-22.465 17.56 22.467c1.862 2.382 1.862 5.708 0 8.09 0 .001-.001.001-.001.002l-17.559 22.465-17.559-22.466c-1.862-2.382-1.862-5.71 0-8.093zm17.559 50.238c5.216 0 9.46 4.244 9.46 9.46s-4.244 9.46-9.46 9.46-9.459-4.244-9.459-9.46 4.243-9.46 9.459-9.46zm-5.36 63.885h10.72c6.849 0 12.694 4.636 14.217 11.274 1.699 7.41 3.324 14.923 4.885 22.499-16.41 5.908-32.517 5.907-48.927-.001 1.56-7.57 3.188-15.081 4.888-22.499 1.522-6.637 7.369-11.273 14.217-11.273zm14.7 283.698c0 5.15-4.19 9.341-9.341 9.341s-9.34-4.19-9.34-9.341v-7.341c3.062.464 6.181.702 9.34.702s6.279-.238 9.341-.702z"/><path d="m201.843 286.285c-.648-4.091-4.484-6.886-8.58-6.236-4.091.647-6.883 4.489-6.236 8.58 7.185 45.414 11.531 90.331 12.572 129.896.687 26.107-20.277 47.497-46.275 47.497-11.289 0-22.168-4.12-30.633-11.603-3.101-2.743-7.842-2.45-10.586.652-2.743 3.103-2.451 7.843.652 10.586 4.876 4.311 10.358 7.776 16.227 10.319v11.684c0 13.422 10.919 24.341 24.34 24.341 13.422 0 24.341-10.919 24.341-24.341v-11.646c21.883-9.465 37.619-31.653 36.929-57.885-1.058-40.205-5.467-85.796-12.751-131.844zm-39.179 201.375c0 5.15-4.19 9.341-9.341 9.341s-9.34-4.19-9.34-9.341v-7.369c3.074.474 6.193.73 9.34.73 3.159 0 6.279-.238 9.341-.702z"/><path d="m107.048 418.524c1.339-50.924 8.078-109.682 18.854-165.926 9.116 3.033 18.269 4.553 27.423 4.553 9.15 0 18.301-1.519 27.414-4.55.392 2.048.78 4.101 1.162 6.159.755 4.072 4.672 6.758 8.742 6.006 4.072-.756 6.762-4.67 6.006-8.742-2.678-14.435-5.821-29.721-9.128-44.14-2.933-12.796-13.749-21.918-26.697-22.831v-16.236c9.829-3.174 16.96-12.407 16.96-23.279 0-8.869-4.746-16.65-11.831-20.939l16.747-21.429c6.113-7.821 6.113-18.747 0-26.567l-21.877-27.991v-8.149c8.935-3.11 15.363-11.618 15.363-21.6 0-12.606-10.256-22.863-22.863-22.863s-22.862 10.257-22.862 22.863c0 4.143 3.357 7.5 7.5 7.5s7.5-3.357 7.5-7.5c0-4.336 3.527-7.863 7.862-7.863 4.336 0 7.863 3.527 7.863 7.863s-3.527 7.863-7.863 7.863c-4.143 0-7.5 3.357-7.5 7.5v14.385l-21.877 27.99c-6.113 7.821-6.113 18.747 0 26.567l16.748 21.428c-7.085 4.289-11.831 12.07-11.831 20.94 0 10.872 7.131 20.105 16.96 23.279v16.236c-12.948.913-23.764 10.035-26.697 22.83-15.54 67.771-25.408 142.945-27.072 206.246-.164 6.217.608 12.388 2.296 18.343.936 3.302 3.942 5.457 7.212 5.457.677 0 1.365-.093 2.049-.286 3.985-1.129 6.3-5.275 5.171-9.261-1.275-4.493-1.858-9.155-1.734-13.856zm28.717-328.685 17.559-22.465 17.559 22.466c1.862 2.382 1.862 5.71 0 8.092v.001l-17.559 22.465-17.559-22.466c-1.863-2.382-1.863-5.71 0-8.093zm17.558 50.238c5.216 0 9.46 4.244 9.46 9.46s-4.244 9.46-9.46 9.46-9.46-4.244-9.46-9.46 4.244-9.46 9.46-9.46zm-5.36 63.885h10.721c6.849 0 12.694 4.636 14.216 11.274 1.684 7.34 3.316 14.861 4.887 22.499-16.41 5.908-32.518 5.908-48.928-.001 1.56-7.57 3.188-15.081 4.888-22.499 1.521-6.637 7.367-11.273 14.216-11.273z"/></g></svg>