<svg id="Capa_1" enable-background="new 0 0 511.942 511.942" height="512" viewBox="0 0 511.942 511.942" width="512" xmlns="http://www.w3.org/2000/svg"><g><path d="m303.812 175.992c-4.143 0-7.5 3.358-7.5 7.5v38.194c0 4.679 2.582 8.92 6.741 11.069l19.146 9.89c1.791.925 3.755 1.388 5.72 1.388 1.964 0 3.928-.462 5.718-1.387l19.147-9.89c4.158-2.148 6.741-6.39 6.741-11.069v-38.194c0-4.142-3.357-7.5-7.5-7.5h-48.213zm40.714 44.146-16.607 8.578-16.606-8.578v-29.146h33.214v29.146z"/><path d="m282.727 148.258c0-4.142-3.357-7.5-7.5-7.5s-7.5 3.358-7.5 7.5v1.151c0 4.142 3.357 7.5 7.5 7.5s7.5-3.358 7.5-7.5z"/><path d="m282.727 196.851c0-4.142-3.357-7.5-7.5-7.5s-7.5 3.358-7.5 7.5v1.152c0 4.142 3.357 7.5 7.5 7.5s7.5-3.358 7.5-7.5z"/><path d="m282.727 245.444c0-4.142-3.357-7.5-7.5-7.5s-7.5 3.358-7.5 7.5v1.151c0 4.142 3.357 7.5 7.5 7.5s7.5-3.358 7.5-7.5z"/><path d="m282.727 294.038c0-4.143-3.357-7.5-7.5-7.5s-7.5 3.357-7.5 7.5v1.151c0 4.143 3.357 7.5 7.5 7.5s7.5-3.357 7.5-7.5z"/><path d="m275.227 335.13c-4.143 0-7.5 3.357-7.5 7.5v1.151c0 4.143 3.357 7.5 7.5 7.5s7.5-3.357 7.5-7.5v-1.151c0-4.142-3.357-7.5-7.5-7.5z"/><path d="m445.095 236.85c-.093-4.141-3.523-7.439-7.665-7.331-4.142.092-7.424 3.524-7.331 7.666l4.988 223.456h-41.501v-283.199c0-4.142-3.357-7.5-7.5-7.5s-7.5 3.358-7.5 7.5v319.5h-97.866l-17.25-27.366v-356.127l16.754 9.797c2.503 1.462 5.623 1.354 8.017-.282 5.681-3.881 11.267-8.525 16.602-13.803 2.945-2.913 2.971-7.662.058-10.606-2.916-2.945-7.665-2.969-10.606-.057-3.484 3.447-7.072 6.574-10.709 9.336l-15.928-9.314c14.833-17.289 24.787-33.848 30.318-50.408 0-.001.001-.002.001-.003l3.815-10.615c1.401-3.898-.623-8.194-4.521-9.595-3.894-1.398-8.193.623-9.595 4.521l-1.184 3.293c-20.286-7.267-40.755-7.266-61.042 0l-1.184-3.293c-1.4-3.898-5.7-5.917-9.595-4.521-3.897 1.401-5.922 5.697-4.521 9.595l3.815 10.615c0 .001.001.002.001.003 5.531 16.559 15.485 33.118 30.317 50.408l-15.926 9.313c-17.775-13.529-34.14-35.824-46.664-63.605l20.431-23.5c35.746-7.634 71.948-7.633 107.69 0l20.435 23.504c-5.68 12.674-11.438 22.789-18.827 33.154-2.405 3.373-1.62 8.056 1.753 10.461 3.372 2.404 8.057 1.619 10.46-1.753 4.351-6.102 8.17-12.112 11.732-18.514l57.861 33.701c21.358 12.44 34.503 34.618 35.16 59.295l1.041 46.622c.091 4.084 3.431 7.333 7.495 7.333.057 0 .113 0 .17-.002 4.142-.092 7.424-3.524 7.331-7.666l-1.042-46.654c-.797-29.941-16.725-56.815-42.606-71.89l-58.591-34.126c1.25-2.674 2.489-5.447 3.731-8.349 1.132-2.644.652-5.702-1.234-7.872l-25.177-28.962c-1.052-1.209-2.462-2.05-4.026-2.399-39.487-8.814-79.531-8.814-119.017 0-1.564.349-2.975 1.19-4.026 2.399l-25.179 28.962c-1.887 2.17-2.366 5.229-1.234 7.872 1.23 2.875 2.479 5.651 3.741 8.343l-58.6 34.133c-25.882 15.074-41.81 41.949-42.607 71.922l-6.868 307.665-.999 27.409c-.074 2.035.683 4.014 2.096 5.479 1.414 1.466 3.363 2.294 5.399 2.294h51.057c1.948 5.164 6.927 8.854 12.764 8.854h25.917c4.143 0 7.5-3.357 7.5-7.5s-3.357-7.5-7.5-7.5h-24.568v-319.5c0-4.142-3.357-7.5-7.5-7.5s-7.5 3.358-7.5 7.5v283.197h-41.502l6.697-300.032c.658-24.709 13.803-46.887 35.161-59.327l57.841-33.69c16.363 29.937 34.111 46.468 47.147 55.373 2.367 1.616 5.487 1.76 8.017.281l16.753-9.796v356.127l-17.25 27.366h-43.31c-4.143 0-7.5 3.357-7.5 7.5s3.357 7.5 7.5 7.5h44.054c4.718 0 9.035-2.383 11.549-6.372l12.457-19.763 12.458 19.765c2.516 3.988 6.833 6.37 11.549 6.37h99.957c5.838 0 10.817-3.689 12.765-8.854h51.057c2.036 0 3.985-.828 5.399-2.294 1.413-1.466 2.17-3.444 2.096-5.479-6.574-276.05-6.137-257.676-6.156-258.465zm-326.74 238.79v12.448h-42.391l.453-12.448zm162.989-425.848c-5.27 12.735-13.638 25.701-25.374 39.32-11.735-13.619-20.104-26.585-25.373-39.32 17.017-6.104 33.729-6.104 50.747 0zm112.243 438.296v-12.448h41.938l.453 12.448z"/></g></svg>