<svg id="Capa_1" enable-background="new 0 0 511.967 511.967" height="512" viewBox="0 0 511.967 511.967" width="512" xmlns="http://www.w3.org/2000/svg"><g><path d="m472.445 232.141-4.871-26.481-12.078-71.285c-2.503-14.774-11.972-27.652-25.328-34.446l-75.393-38.354c1.552-3.289 3.075-6.619 4.535-10.03 1.132-2.644.652-5.702-1.234-7.873l-29.236-33.627c-1.052-1.209-2.462-2.05-4.026-2.399-45.673-10.196-91.988-10.195-137.66 0-1.564.349-2.975 1.19-4.026 2.399l-29.235 33.627c-1.887 2.17-2.366 5.229-1.235 7.872 1.484 3.467 2.991 6.805 4.514 10.041l-75.373 38.344c-13.356 6.794-22.825 19.672-25.328 34.446l-12.073 71.251-4.877 26.515c-.709 3.857 1.672 7.609 5.464 8.609l52.424 13.823v238.099c0 10.639 8.655 19.294 19.293 19.294h27.856c4.142 0 7.5-3.357 7.5-7.5s-3.358-7.5-7.5-7.5h-27.856c-2.367 0-4.293-1.926-4.293-4.294v-294.823c0-4.142-3.358-7.5-7.5-7.5s-7.5 3.358-7.5 7.5v14.248l-37.11-10.524 10.961-64.692c1.714-10.115 8.196-18.931 17.34-23.583l75.311-38.312c19.138 35.628 40.017 55.15 55.285 65.578 2.395 1.635 5.515 1.745 8.016.281l21.271-12.438v332.598l-19.522 33.813c-.765 1.324-2.189 2.147-3.718 2.147h-50.697c-4.142 0-7.5 3.357-7.5 7.5s3.358 7.5 7.5 7.5h50.697c6.871 0 13.273-3.696 16.708-9.647l14.032-24.304 14.032 24.305c3.437 5.95 9.839 9.646 16.709 9.646h108.54c10.639 0 19.293-8.655 19.293-19.294v-238.098l52.424-13.823c3.792-1 6.174-4.752 5.464-8.609zm-416.913-4.123 2.134-11.601 39.744 11.271v11.373zm344.025 264.655c0 2.368-1.926 4.294-4.293 4.294h-108.54c-1.529 0-2.954-.823-3.719-2.147l-19.521-33.813v-332.599l21.27 12.437c1.173.686 2.48 1.026 3.786 1.026 1.48 0 2.958-.438 4.23-1.307 6.537-4.465 12.966-9.811 19.107-15.888 2.944-2.914 2.969-7.662.056-10.606-2.913-2.945-7.662-2.969-10.606-.056-4.287 4.242-8.711 8.073-13.196 11.43l-20.448-11.957c17.648-20.358 29.448-39.811 35.934-59.245 0 0 0-.001.001-.001l4.43-12.324c1.401-3.898-.623-8.193-4.521-9.595-3.898-1.4-8.193.623-9.595 4.521l-1.786 4.97c-6.635-2.452-13.316-4.251-19.944-5.347-4.086-.679-7.947 2.09-8.623 6.176s2.089 7.947 6.176 8.623c5.72.946 11.508 2.501 17.279 4.641-6.27 15.609-16.497 31.485-31.049 48.196-14.552-16.711-24.781-32.587-31.049-48.196 5.771-2.14 11.559-3.695 17.279-4.641 4.086-.676 6.852-4.537 6.176-8.623-.676-4.087-4.541-6.851-8.623-6.176-6.629 1.096-13.309 2.895-19.944 5.347l-1.786-4.97c-1.401-3.897-5.696-5.921-9.595-4.521-3.898 1.401-5.922 5.697-4.521 9.595l4.43 12.324c.001.004.004.007.005.011 6.487 19.431 18.285 38.881 35.93 59.236l-20.448 11.957c-27.667-20.704-46.016-54.359-55.509-75.513l24.49-28.17c41.927-9.011 84.404-9.011 126.33 0l24.494 28.173c-6.958 15.558-14.936 29.684-23.749 42.046-2.405 3.373-1.62 8.056 1.753 10.461 3.371 2.404 8.056 1.618 10.46-1.753 5.654-7.931 10.963-16.545 15.911-25.721l75.35 38.332c9.144 4.651 15.626 13.467 17.34 23.582l10.961 64.692-37.11 10.524v-14.248c0-4.142-3.357-7.5-7.5-7.5s-7.5 3.358-7.5 7.5v294.823zm15-253.612v-11.373l39.744-11.271 2.134 11.601z"/><path d="m367.511 196.212h-55.979c-4.143 0-7.5 3.358-7.5 7.5v27.99c0 19.569 15.92 35.49 35.489 35.49s35.49-15.92 35.49-35.49v-27.99c0-4.142-3.358-7.5-7.5-7.5zm-7.5 35.49c0 11.298-9.191 20.49-20.49 20.49-11.298 0-20.489-9.192-20.489-20.49v-20.49h40.979z"/><path d="m278.342 163.431c-4.143 0-7.5 3.358-7.5 7.5v1.337c0 4.142 3.357 7.5 7.5 7.5s7.5-3.358 7.5-7.5v-1.337c0-4.142-3.358-7.5-7.5-7.5z"/><path d="m278.342 219.851c-4.143 0-7.5 3.358-7.5 7.5v1.337c0 4.142 3.357 7.5 7.5 7.5s7.5-3.358 7.5-7.5v-1.337c0-4.143-3.358-7.5-7.5-7.5z"/><path d="m278.342 276.271c-4.143 0-7.5 3.357-7.5 7.5v1.337c0 4.143 3.357 7.5 7.5 7.5s7.5-3.357 7.5-7.5v-1.337c0-4.143-3.358-7.5-7.5-7.5z"/><path d="m278.342 332.69c-4.143 0-7.5 3.357-7.5 7.5v1.337c0 4.143 3.357 7.5 7.5 7.5s7.5-3.357 7.5-7.5v-1.337c0-4.142-3.358-7.5-7.5-7.5z"/><path d="m278.342 389.11c-4.143 0-7.5 3.357-7.5 7.5v1.337c0 4.143 3.357 7.5 7.5 7.5s7.5-3.357 7.5-7.5v-1.337c0-4.142-3.358-7.5-7.5-7.5z"/></g></svg>