<svg id="Capa_1" enable-background="new 0 0 512 512" height="512" viewBox="0 0 512 512" width="512" xmlns="http://www.w3.org/2000/svg"><g><path d="m238.024 209.256c-6.818 0-12.995 3.484-16.522 9.32l-16.582 27.438c-3.725 6.159-3.725 13.812-.001 19.971l16.583 27.438v.001c3.527 5.836 9.704 9.319 16.523 9.319 6.818-.001 12.994-3.484 16.521-9.319l16.583-27.438c3.725-6.159 3.725-13.812.001-19.972l-16.584-27.438c-3.526-5.835-9.702-9.319-16.522-9.32zm3.684 17.079 16.585 27.438c.83 1.373.83 3.079-.001 4.452l-16.584 27.439c-1.134 1.875-2.953 2.078-3.684 2.078s-2.551-.203-3.685-2.078l-16.584-27.439c-.83-1.373-.83-3.079.001-4.453l16.583-27.438c1.134-1.876 2.954-2.079 3.685-2.079s2.55.204 3.684 2.08z"/><path d="m354.961 244.599c-4.143 0-7.5 3.357-7.5 7.5v7.802c0 4.143 3.357 7.5 7.5 7.5s7.5-3.357 7.5-7.5v-7.802c0-4.142-3.357-7.5-7.5-7.5z"/><path d="m68.568 259.901v-7.802c0-4.143-3.357-7.5-7.5-7.5s-7.5 3.357-7.5 7.5v7.802c0 4.143 3.357 7.5 7.5 7.5s7.5-3.358 7.5-7.5z"/><path d="m114.532 259.901v-7.802c0-4.143-3.357-7.5-7.5-7.5s-7.5 3.357-7.5 7.5v7.802c0 4.143 3.357 7.5 7.5 7.5s7.5-3.358 7.5-7.5z"/><path d="m491.937 200.059h-162.363c-2.383-6.881-8.912-11.844-16.594-11.844h-50.657c-4.143 0-7.5 3.357-7.5 7.5s3.357 7.5 7.5 7.5h50.657c1.418 0 2.571 1.153 2.571 2.57v100.429c0 1.417-1.153 2.57-2.571 2.57h-149.913c-1.417 0-2.57-1.153-2.57-2.57v-100.428c0-1.417 1.153-2.57 2.57-2.57h69.27c4.143 0 7.5-3.357 7.5-7.5s-3.357-7.5-7.5-7.5h-69.27c-7.681 0-14.211 4.962-16.593 11.844h-126.698c-10.904-.001-19.776 8.871-19.776 19.775v72.329c0 10.904 8.872 19.776 19.776 19.776h19.888c4.143 0 7.5-3.357 7.5-7.5s-3.357-7.5-7.5-7.5h-19.888c-2.634 0-4.776-2.143-4.776-4.776v-72.329c0-2.634 2.143-4.776 4.776-4.776h125.721v81.882h-75.846c-4.143 0-7.5 3.357-7.5 7.5s3.357 7.5 7.5 7.5h76.823c2.382 6.881 8.912 11.844 16.593 11.844h149.913c7.681 0 14.211-4.962 16.594-11.844h162.362c11.063 0 20.063-9 20.063-20.063v-71.754c.001-11.064-8.999-20.065-20.062-20.065zm5.063 91.818c0 2.792-2.271 5.063-5.063 5.063h-54.146l6.595-8.337c3.487-4.409 5.408-9.933 5.408-15.556v-2.055c0-4.143-3.357-7.5-7.5-7.5s-7.5 3.357-7.5 7.5v2.055c0 2.259-.771 4.479-2.172 6.249l-10.933 13.82c-1.922 2.43-4.802 3.823-7.9 3.823h-83.237v-81.882h83.237c3.099 0 5.979 1.394 7.9 3.823l10.933 13.82c1.4 1.771 2.172 3.99 2.172 6.249v2.055c0 4.143 3.357 7.5 7.5 7.5s7.5-3.357 7.5-7.5v-2.055c0-5.623-1.921-11.146-5.408-15.556l-6.595-8.337h54.146c2.792 0 5.063 2.271 5.063 5.064z"/></g></svg>