<svg height="480pt" viewBox="-52 0 480 480" width="480pt" xmlns="http://www.w3.org/2000/svg"><path d="m168 40h-64c-4.417969 0-8 3.582031-8 8v88h-24c-4.417969 0-8 3.582031-8 8v40h-8c-2.335938 0-4.550781 1.019531-6.070312 2.792969l-48 56c-1.625 1.894531-2.273438 4.4375-1.753907 6.878906l48 224c.789063 3.691406 4.050781 6.328125 7.824219 6.328125h160c3.773438 0 7.035156-2.636719 7.824219-6.328125l48-224c.523437-2.441406-.125-4.984375-1.75-6.878906l-48-56c-1.523438-1.773438-3.738281-2.792969-6.074219-2.792969h-8v-40c0-4.417969-3.582031-8-8-8h-24v-88c0-4.417969-3.582031-8-8-8zm-56 16h48v32h-16v16h16v32h-48zm134.609375 184h-22.609375v16h30.105469l-18.855469 88h-179.25v16h175.816406l-22.289062 104h-147.054688l-3.433594-16h132.960938v-16h-36.457031l19.953125-53.191406-14.992188-5.601563-22.046875 58.792969h-4.914062l-22.046875-58.808594-14.992188 5.601563 19.953125 53.207031h-60.847656l-37.714844-176h30.105469v-16h-22.609375l34.289063-40h30.535156l-25.160156 44c-.984376 1.726562-1.292969 3.761719-.863282 5.703125l16 72 15.617188-3.472656-15.328125-68.941407 28.160156-49.289062h54.71875l28.160156 49.289062-15.328125 68.976563 15.617188 3.46875 16-72c.429687-1.941406.125-3.976563-.863282-5.703125l-25.160156-44.03125h30.535156zm-54.609375-56h-112v-32h112zm0 0"/><path d="m358.617188 59.152344c.910156-3.648438 1.375-7.394532 1.382812-11.152344 0-26.507812-21.488281-48-48-48-26.507812 0-48 21.492188-48 48h16c-.113281-12.898438 7.53125-24.605469 19.386719-29.691406 11.855469-5.082032 25.605469-2.550782 34.871093 6.421875 9.269532 8.972656 12.242188 22.632812 7.542969 34.644531-1.351562 3.554688-.011719 7.566406 3.199219 9.601562 9.328125 5.804688 15 16.011719 15 27 0 10.988282-5.671875 21.195313-15 27-3.210938 2.03125-4.550781 6.046876-3.199219 9.597657 4.574219 11.972656 1.550781 25.515625-7.671875 34.40625-9.226562 8.894531-22.871094 11.417969-34.664062 6.410156-11.792969-5.007813-19.457032-16.578125-19.464844-29.390625h-16c0 26.507812 21.492188 48 48 48 26.511719 0 48-21.492188 48-48-.007812-3.757812-.472656-7.503906-1.382812-11.152344 11.007812-9.070312 17.382812-22.585937 17.382812-36.847656s-6.375-27.777344-17.382812-36.847656zm0 0"/><path d="m208 88h40v16h-40zm0 0"/><path d="m264 88h16v16h-16zm0 0"/><path d="m214.058594 56.238281 32-8 3.878906 15.523438-31.996094 8zm0 0"/><path d="m214.058594 135.757812 3.878906-15.523437 32 8-3.882812 15.523437zm0 0"/><path d="m104 240h64v16h-64zm0 0"/></svg>