<svg id="Capa_1" enable-background="new 0 0 512 512" height="512" viewBox="0 0 512 512" width="512" xmlns="http://www.w3.org/2000/svg"><g><path d="m281.745 438.63c4.143 0 7.5-3.357 7.5-7.5s-3.357-7.5-7.5-7.5h-11.697c-4.143 0-7.5 3.357-7.5 7.5s3.357 7.5 7.5 7.5z"/><path d="m324.16 438.63c4.143 0 7.5-3.357 7.5-7.5s-3.357-7.5-7.5-7.5h-11.697c-4.143 0-7.5 3.357-7.5 7.5s3.357 7.5 7.5 7.5z"/><path d="m366.575 438.63c4.143 0 7.5-3.357 7.5-7.5s-3.357-7.5-7.5-7.5h-11.697c-4.143 0-7.5 3.357-7.5 7.5s3.357 7.5 7.5 7.5z"/><path d="m408.99 438.63c4.143 0 7.5-3.357 7.5-7.5s-3.357-7.5-7.5-7.5h-11.697c-4.143 0-7.5 3.357-7.5 7.5s3.357 7.5 7.5 7.5z"/><path d="m451.405 438.63c4.143 0 7.5-3.357 7.5-7.5s-3.357-7.5-7.5-7.5h-11.698c-4.143 0-7.5 3.357-7.5 7.5s3.357 7.5 7.5 7.5z"/><path d="m473.81 351.967-62.521-27.034c-66.746-28.861-116.898-85.393-137.597-155.1-6.936-23.358-12.942-52.72-16.914-82.676-.545-4.108-4.332-6.999-8.42-6.449-4.106.544-6.994 4.314-6.449 8.42 4.13 31.155 10.148 60.539 17.404 84.975 21.965 73.976 75.188 133.97 146.022 164.598l62.521 27.034c17.7 7.654 29.137 25.059 29.137 44.342v28.108c0 6.645-5.406 12.051-12.052 12.051h-60.959c-4.143 0-7.5 3.357-7.5 7.5s3.357 7.5 7.5 7.5h60.959c4.329 0 8.42-1.028 12.052-2.843v22.557c0 6.645-5.406 12.051-12.051 12.051h-205.177c-14.467 0-27.931-7.808-35.138-20.376-2.896-5.05-5.707-10.035-8.447-14.967 6.171 2.329 12.796 3.578 19.586 3.578h138.23c4.143 0 7.5-3.357 7.5-7.5s-3.357-7.5-7.5-7.5h-138.23c-14.465 0-27.894-7.748-35.048-20.22-4.363-7.608-8.766-15.48-13.086-23.398-15.155-31.713-26.64-60.869-34.725-88.07-7.294-24.541-29.309-41.029-54.781-41.029-17.073 0-32.924 7.441-43.667 20.213-29.674-18.993-44.72-46.691-52.264-67.938 3.7-10.426 8.756-20.28 15.047-29.323 49.962-71.812 72.2-133.398 66.099-183.05-.106-.864.283-1.451.525-1.725.28-.317.777-.696 1.548-.696h34.914l3.424 31.026h-7.806c-4.143 0-7.5 3.357-7.5 7.5s3.357 7.5 7.5 7.5h9.461l3.44 31.174h-9.612c-4.143 0-7.5 3.357-7.5 7.5s3.357 7.5 7.5 7.5h11.267l9.609 87.075c.42 3.801 3.631 6.678 7.455 6.678 3.823 0 7.035-2.877 7.455-6.678l9.609-87.075h11.268c4.143 0 7.5-3.357 7.5-7.5s-3.357-7.5-7.5-7.5h-9.613l3.44-31.174h9.462c4.143 0 7.5-3.357 7.5-7.5s-3.357-7.5-7.5-7.5h-7.806l3.423-31.026h39.773c.725 0 1.212.336 1.494.618.277.277.607.757.606 1.467-.012 12.644.633 26.677 1.915 41.708.352 4.127 3.978 7.175 8.11 6.835 4.127-.352 7.188-3.983 6.835-8.11-1.246-14.604-1.872-28.203-1.86-40.418.005-4.562-1.769-8.854-4.994-12.082-3.232-3.236-7.531-5.018-12.106-5.018h-129.163c-4.888 0-9.547 2.099-12.783 5.758-3.257 3.682-4.78 8.6-4.179 13.493 3.103 25.245-2.177 54.737-15.691 87.657-10.796 26.297-26.889 54.895-47.831 84.996-7.589 10.907-13.572 22.862-17.784 35.532 0 .001-.001.003-.001.004-7.573 22.79-9.157 47.358-4.577 71.047 4.553 23.557 7.122 50.59 7.637 80.352.071 4.098 3.414 7.37 7.496 7.37.044 0 .089 0 .133-.001 4.142-.072 7.44-3.487 7.369-7.629-.53-30.627-3.19-58.531-7.908-82.938-2.66-13.762-2.978-27.851-1.028-41.62 9.815 19.471 25.425 40.557 50.154 56.364-.786 1.694-1.507 3.418-2.121 5.182-14.105 40.521-17.285 101.088-20.36 159.661l-.572 10.843c-.329 6.128-5.396 10.929-11.539 10.929-3.297 0-6.334-1.345-8.552-3.786-2.212-2.434-3.257-5.574-2.942-8.843 2.64-27.468 4.192-52.163 4.746-75.497.098-4.141-3.179-7.577-7.32-7.676-4.181-.097-7.577 3.181-7.676 7.32-.545 22.97-2.076 47.312-4.682 74.417-.713 7.421 1.755 14.844 6.771 20.365 5.023 5.529 12.187 8.7 19.655 8.7 14.117 0 25.765-11.038 26.516-25.131l.572-10.854c3.021-57.526 6.144-117.011 19.548-155.518 5.768-16.567 21.456-27.979 39.662-27.979 18.779 0 35.015 12.178 40.401 30.303 14.036 47.226 37.943 99.976 73.086 161.264 9.873 17.219 28.323 27.915 48.15 27.915h205.179c14.916 0 27.051-12.135 27.051-27.051v-74.873c0-25.27-14.988-48.079-38.184-58.109zm-294.097-336.967-12.147 110.075-12.147-110.075z"/></g></svg>