<svg id="Capa_1" enable-background="new 0 0 512.389 122.189" height="512" viewBox="0 0 512.389 512.389" width="512" xmlns="http://www.w3.org/2000/svg"><g><path d="m511.391 306.535-4.756-18.541c6.987-13.425 4.815-29.833-5.766-40.972-21.114-22.224-47.449-42.419-80.509-61.74-7.305-4.266-16.44-3.318-22.734 2.363-.058.052-.116.107-.174.159l-45.736-33.879c-7.354-5.448-17.627-4.963-24.424 1.152-10.694 9.626-31.719 29.701-52.359 55.998-4.023 5.125-7.81 10.23-11.411 15.317l-173.678-52.845c-3.969-1.21-8.16 1.03-9.365 4.995-1.207 3.966 1.03 8.159 4.995 9.365l169.264 51.501c-.742 1.157-1.474 2.314-2.194 3.468l-23.656-4.76c-7.666-1.545-15.281 2.632-18.097 9.93l-7.932 20.541c-1.726 4.468-1.372 9.427.972 13.605s6.392 7.065 11.107 7.921l13.342 2.42c-.942 2.705-1.823 5.399-2.627 8.08-35.614-.417-72.197-1.238-108.458-2.053-20.489-.461-36.085-.798-48.318-1.052v-67.518c0-11.799-9.599-21.398-21.398-21.398h-24.78c3.236-11.704 7.641-22.853 13.599-32.485.969-1.567 2.86-2.287 4.59-1.765l15.112 4.598c3.967 1.206 8.158-1.029 9.365-4.995s-1.03-8.159-4.995-9.365l-15.112-4.598c-8.245-2.51-17.179.876-21.728 8.229-10.836 17.518-24.308 51.553-23.495 135.891v46.168c0 4.09 3.274 7.426 7.363 7.505 5.125.097 9.477.168 14.351.247 14.414.236 34.155.559 94.066 1.905 38.549.866 111.117 2.319 164.014 2.319 60.152-.001 110.312-2.24 149.089-6.655 4.118-.469 7.078-4.189 6.608-8.307s-4.189-7.069-8.307-6.608c-38.215 4.352-87.804 6.559-147.391 6.56-52.751 0-125.192-1.45-163.677-2.315-59.957-1.348-79.724-1.67-94.158-1.907-2.39-.039-4.656-.076-6.948-.114v-31.351c3.202.055 6.168.102 9.273.151 14.426.229 32.379.515 92.537 1.869 139.222 3.125 283.185 6.361 361.155-13.639l15.187-3.897 3.652 14.234c2.28 8.885-3.079 17.98-11.947 20.274-9.058 2.342-17.993 4.243-28.121 5.983-4.086.702-6.828 4.582-6.127 8.668s4.585 6.834 8.668 6.127c10.402-1.786 19.999-3.829 29.338-6.245 16.869-4.364 27.065-21.653 22.731-38.539zm-496.72-10.008c-.76-17.591-.72-45.639 4.544-72.924h28.264c3.521 0 6.387 2.865 6.387 6.387v67.216c-13.917-.272-22.057-.401-29.307-.517-3.302-.052-6.45-.102-9.888-.162zm202.947-21.183c-.309-.057-.543-.224-.697-.496-.152-.273-.173-.559-.061-.851l7.933-20.542c.176-.456.654-.718 1.132-.622l18.584 3.74c-4.02 7.301-7.583 14.542-10.673 21.712zm256.664 10.044c-38.487 9.872-94.162 13.917-157.697 15.104 11.907-15.503 23.733-30.123 35.27-43.568 2.699-3.146 2.337-7.885-.809-10.584-3.147-2.698-7.885-2.337-10.584.809-14.023 16.344-28.458 34.377-42.939 53.614-18.233.182-37.011.163-56.132.007 8.1-23.879 31.955-76.946 95.944-134.536 1.514-1.361 3.804-1.464 5.447-.248l43.52 32.237c-8.352 8.036-16.954 16.825-25.708 26.293-2.815 3.044-2.628 7.793.415 10.607 3.045 2.815 7.794 2.628 10.607-.415 12.463-13.481 24.599-25.567 36.069-35.92 1.419-1.281 3.469-1.499 5.101-.545 31.821 18.597 57.074 37.934 77.2 59.119 5.951 6.264 7.285 15.412 3.636 23.064z"/></g></svg>