<svg id="Capa_1" enable-background="new 0 0 512.001 512.001" height="512" viewBox="0 0 512.001 512.001" width="512" xmlns="http://www.w3.org/2000/svg"><g><path d="m507.401 503.342-5.024-32.114c.876-.534 1.675-1.204 2.358-2.001 1.871-2.184 2.691-5.065 2.251-7.903l-16.17-104.444 7.65-9.28c2.635-3.195 2.18-7.923-1.017-10.558-2.868-2.365-6.968-2.233-9.685.132l-30.024-193.92c-.635-4.094-4.465-6.9-8.56-6.265-4.094.634-6.898 4.466-6.265 8.56l48.324 312.114h-64.186l-39.548-194.2v-87.513c0-4.143-3.357-7.5-7.5-7.5s-7.5 3.357-7.5 7.5v263.1h-84.125c-2.465-9.187-9.342-15.582-16.938-20.671 9.51-6.372 17.908-14.784 17.908-28.172s-8.397-21.799-17.908-28.171c9.51-6.371 17.908-14.783 17.908-28.171 0-13.386-8.397-21.797-17.907-28.167 9.51-6.371 17.907-14.782 17.907-28.167 0-13.386-8.397-21.798-17.907-28.169 9.51-6.371 17.907-14.782 17.907-28.168 0-13.385-8.396-21.797-17.906-28.167 9.51-6.37 17.906-14.781 17.906-28.167 0-13.385-8.397-21.796-17.906-28.166 9.111-6.104 17.2-14.081 17.861-26.511 10.97-3.96 21.237-9.86 30.247-17.52 17.723-15.065 29.545-36.005 33.288-58.963l1.123-6.887 29.758 9.752c27.647 9.06 47.364 32.568 51.761 60.972l2.791 18.026c.634 4.095 4.47 6.889 8.56 6.265 4.094-.634 6.898-4.466 6.265-8.56l-2.791-18.026c-1.068-6.898-2.898-13.536-5.389-19.836h.129c4.143 0 7.5-3.357 7.5-7.5s-3.357-7.5-7.5-7.5h-2.689l1.373-6.137c.904-4.042-1.64-8.052-5.683-8.956-3.609-.811-7.187 1.138-8.556 4.443-10.68-12.493-24.756-22.089-41.098-27.445l-66.94-21.937c-1.961-.643-4.102-.449-5.917.537-40.062 21.769-79.011 21.768-119.074 0-1.814-.987-3.956-1.182-5.917-.537l-66.94 21.937c-32.892 10.779-56.615 38.724-61.911 72.93l-8.939 57.736-2.602-1.042c-3.846-1.537-8.21.33-9.75 4.175s.329 8.211 4.174 9.751l5.823 2.332-28.287 182.69c-1.962-.948-4.317-1.038-6.445-.042-3.751 1.757-5.368 6.222-3.611 9.973l3.634 7.76-2.508.714c-3.984 1.135-6.294 5.283-5.16 9.268.939 3.298 3.943 5.448 7.209 5.448.591 0 1.191-.085 1.789-.232l-3.239 20.92c-.634 4.094 2.171 7.926 6.264 8.56.389.06.775.089 1.157.089 3.635 0 6.829-2.649 7.402-6.354l47.912-309.45c4.428-28.597 24.261-51.96 51.76-60.972l29.758-9.752 1.123 6.886c3.744 22.957 15.565 43.898 33.288 58.965 9.486 8.064 20.369 14.168 31.995 18.119.888 12.085 8.852 19.907 17.814 25.911-9.51 6.371-17.906 14.781-17.906 28.166s8.397 21.797 17.906 28.167c-9.51 6.37-17.906 14.781-17.906 28.167s8.397 21.797 17.907 28.168c-9.51 6.371-17.907 14.782-17.907 28.169 0 13.386 8.397 21.797 17.907 28.167-9.51 6.371-17.907 14.782-17.907 28.167 0 13.388 8.397 21.8 17.907 28.171-9.51 6.371-17.907 14.783-17.907 28.171s8.397 21.8 17.908 28.172c-7.596 5.089-14.473 11.484-16.938 20.671h-85.827v-263.1c0-4.143-3.358-7.5-7.5-7.5s-7.5 3.357-7.5 7.5v87.516l-39.547 194.198h-64.186l3.204-20.69c.634-4.094-2.171-7.926-6.264-8.56-4.088-.621-7.925 2.172-8.559 6.265l-4.125 26.644c-.44 2.841.38 5.723 2.251 7.906.683.797 1.482 1.467 2.358 2l-5.025 32.113c-.339 2.165.286 4.37 1.711 6.035s3.507 2.624 5.698 2.624h64.558c3.694 0 6.839-2.69 7.41-6.341l5.162-32.996h.025c4.657 0 8.711-3.312 9.638-7.873l25.691-126.155v70.266l-7.03 8.416c-2.655 3.179-2.23 7.908.948 10.563 1.403 1.173 3.108 1.744 4.804 1.744.429 0 .855-.047 1.277-.119v36.537c0 11.797 9.598 21.395 21.395 21.395h153.226c4.143 0 7.5-3.357 7.5-7.5s-3.357-7.5-7.5-7.5h-153.224c-3.526 0-6.395-2.868-6.395-6.395v-11.993h233.013v11.994c0 3.526-2.869 6.395-6.396 6.395h-37.011c-4.143 0-7.5 3.357-7.5 7.5s3.357 7.5 7.5 7.5h37.011c11.798 0 21.396-9.598 21.396-21.395v-127.408l25.691 126.155c.929 4.562 4.982 7.873 9.638 7.873h.025l5.162 32.996c.571 3.65 3.716 6.341 7.41 6.341h64.558c2.191 0 4.273-.959 5.698-2.624s2.051-3.87 1.712-6.035zm-437.252-6.341h-49.375l3.808-24.337h49.375zm158.984-400.463 6.833-13.494c4.37 1.332 8.917 2.246 13.599 2.681l-.151 15.026c-6.938-.553-13.748-1.98-20.281-4.213zm35.435-11.053c4.482-.558 8.835-1.544 13.013-2.927l6.72 13.488c-6.394 2.316-13.073 3.84-19.884 4.535zm33.326 4.207-6.677-13.401c3.992-2.402 7.726-5.197 11.133-8.355l12.086 9.057c-1.479 1.464-3.005 2.887-4.599 4.242-3.744 3.182-7.743 6.007-11.943 8.457zm21.291-46.262 14.985 2.689c-2.486 6.882-5.868 13.4-10.049 19.387l-11.951-8.955c2.784-4.06 5.144-8.452 7.015-13.121zm18.851-12.145c-.015.094-.036.186-.052.279l-14.76-2.649c.003-.015.006-.03.008-.045l1.878-11.514 14.426 4.728zm-28.649-10.71-.959 5.881c-4.211 25.826-26.26 44.57-52.427 44.57s-48.216-18.744-52.428-44.57l-.959-5.881c35.483 15.38 71.288 15.38 106.773 0zm-121.027 45.598c-4.427-6.207-7.994-12.995-10.577-20.183l15.021-2.595c1.99 4.973 4.537 9.629 7.556 13.907zm-1.47-48.816 1.878 11.513-14.778 2.553c-.008-.047-.018-.093-.026-.139l-1.5-9.2zm11.276 60.221 12.193-9.014c3.61 3.254 7.566 6.116 11.805 8.533l-6.746 13.323c-4.677-2.616-9.126-5.675-13.255-9.186-1.38-1.172-2.703-2.401-3.997-3.656zm57.835 38.448c5.714 0 11.386-.507 16.955-1.486-2.461 4.952-8.104 8.875-16.105 13.515-7.844-4.549-13.422-8.409-15.956-13.226 4.974.778 10.021 1.197 15.106 1.197zm.85 29.305c10.963 6.357 17.5 11.362 17.5 19.529 0 8.168-6.537 13.172-17.5 19.529-10.963-6.357-17.5-11.362-17.5-19.529s6.536-13.172 17.5-19.529zm-.001 56.333c10.964 6.357 17.5 11.362 17.5 19.529s-6.537 13.173-17.5 19.53c-10.963-6.357-17.5-11.363-17.5-19.53s6.537-13.172 17.5-19.529zm.001 56.335c10.964 6.357 17.5 11.363 17.5 19.531s-6.537 13.172-17.5 19.53c-10.963-6.357-17.5-11.362-17.5-19.53s6.536-13.173 17.5-19.531zm0 56.336c10.964 6.357 17.5 11.363 17.5 19.53 0 8.169-6.536 13.175-17.5 19.533-10.963-6.358-17.5-11.364-17.5-19.533 0-8.167 6.536-13.173 17.5-19.53zm0 56.339c10.964 6.358 17.5 11.364 17.5 19.533s-6.536 13.176-17.5 19.534c-10.963-6.358-17.5-11.365-17.5-19.534s6.536-13.174 17.5-19.533zm0 56.343c7.186 4.167 12.477 7.757 15.261 12.033h-30.522c2.783-4.276 8.074-7.865 15.261-12.033zm185.001 69.984-3.808-24.337h49.375l3.808 24.337z"/><path d="m161.805 297.81 15.401 16.912-15.401 16.911c-2.789 3.062-2.567 7.806.495 10.595 1.438 1.31 3.245 1.955 5.048 1.955 2.037 0 4.067-.825 5.547-2.45l20-21.961c2.606-2.862 2.607-7.237 0-10.1l-15.401-16.912 15.401-16.911c2.606-2.862 2.607-7.237 0-10.1l-15.402-16.912 15.402-16.915c2.606-2.862 2.606-7.237 0-10.1l-20-21.965c-2.789-3.062-7.532-3.283-10.595-.496-3.063 2.789-3.285 7.532-.496 10.596l15.402 16.915-15.402 16.915c-2.606 2.862-2.606 7.237 0 10.1l15.401 16.912-15.401 16.911c-2.605 2.862-2.605 7.237.001 10.1z"/><path d="m350.196 243.787-15.402-16.915 15.402-16.915c2.788-3.063 2.566-7.807-.496-10.596-3.062-2.787-7.806-2.567-10.596.496l-20 21.965c-2.605 2.862-2.605 7.237 0 10.1l15.402 16.915-15.401 16.912c-2.606 2.862-2.606 7.237 0 10.1l15.401 16.911-15.401 16.912c-2.606 2.862-2.606 7.237 0 10.1l20 21.961c1.479 1.625 3.51 2.45 5.547 2.45 1.803 0 3.61-.646 5.048-1.955 3.062-2.789 3.284-7.532.495-10.595l-15.401-16.911 15.401-16.912c2.606-2.862 2.606-7.237 0-10.1l-15.401-16.911 15.401-16.912c2.607-2.863 2.607-7.238.001-10.1z"/><path d="m252.24 52.386h7.521c4.143 0 7.5-3.357 7.5-7.5s-3.357-7.5-7.5-7.5h-7.521c-4.142 0-7.5 3.357-7.5 7.5s3.358 7.5 7.5 7.5z"/></g></svg>