<svg id="Capa_1" enable-background="new 0 0 512 512" height="512" viewBox="0 0 512 512" width="512" xmlns="http://www.w3.org/2000/svg"><g><path d="m474.255 437.186c-24.39-102.733-62.619-177.646-116.871-229.021-21.659-20.508-27.542-53.513-11.56-80.135l5.312-8.854c10.306-17.174 13.688-37.332 9.526-56.759-.868-4.05-4.856-6.633-8.905-5.763-4.051.868-6.63 4.855-5.763 8.905 5.745 26.814-6.556 43.649-13.554 55.652-3.527 2.828-18.254 13.403-32.706 5.817-3.668-1.926-8.202-.515-10.127 3.154-1.925 3.668-.513 8.201 3.154 10.127 5.614 2.947 11.627 4.422 17.855 4.422 4.334 0 8.771-.718 13.249-2.148-2.385 10.039-2.75 20.387-1.153 30.467-17.198 2.763-34.645 4.476-51.975 5.093-4.14.147-7.376 3.622-7.229 7.762.144 4.049 3.472 7.233 7.49 7.233.09 0 .181-.002.271-.005 18.411-.656 36.948-2.51 55.205-5.503 2.1 5.828 4.888 11.451 8.346 16.746-52.354 9.944-105.266 9.946-157.623 0 3.458-5.296 6.246-10.918 8.346-16.746 18.257 2.993 36.794 4.847 55.205 5.503.091.003.181.005.271.005 4.019 0 7.347-3.185 7.49-7.233.147-4.14-3.089-7.614-7.229-7.762-17.329-.617-34.776-2.33-51.975-5.093 1.597-10.08 1.233-20.429-1.153-30.467 4.478 1.43 8.915 2.149 13.249 2.149 6.228 0 12.242-1.476 17.855-4.422 3.667-1.926 5.079-6.459 3.154-10.127-1.927-3.668-6.462-5.077-10.127-3.154-14.515 7.621-29.158-2.95-32.703-5.812-1.109-1.9-3.224-5.393-5.838-9.758-12.363-20.605-12.221-45.814.372-65.789 6.033-9.57 14.553-19.046 25.369-28.224l27.039 25.081c16.533 15.337 42.434 15.335 58.967 0l27.039-25.081c9.026 7.66 16.469 15.543 22.172 23.491 2.415 3.365 7.102 4.135 10.467 1.721 3.365-2.415 4.136-7.102 1.721-10.467-7.533-10.496-17.632-20.782-30.016-30.573-2.901-2.292-7.04-2.129-9.752.385l-31.832 29.527c-10.812 10.028-27.751 10.031-38.564-.001l-31.828-29.528c-2.712-2.516-6.853-2.678-9.752-.384-14.534 11.49-25.877 23.619-33.715 36.051-15.628 24.79-15.837 56.021-.545 81.506 5.283 8.824 5.447 9.038 6.329 10.606 14.442 25.696 9.019 57.933-12.576 78.385-54.254 51.375-92.482 126.288-116.871 229.02-4.955 20.866 7.33 41.697 27.967 47.424.671.187 1.346.275 2.01.275 3.286 0 6.302-2.176 7.223-5.496 1.108-3.992-1.229-8.125-5.221-9.232-12.832-3.561-20.468-16.521-17.385-29.506 23.694-99.804 60.522-172.288 112.592-221.595.528-.5 1.033-1.014 1.545-1.525 8.591 1.793 17.198 3.33 25.817 4.604-5.529 7.781-13.106 20.887-16.409 37.794-.795 4.065 1.856 8.005 5.922 8.799.485.096.97.141 1.446.141 3.516 0 6.653-2.483 7.353-6.062 4.49-22.975 18.693-38.003 18.89-38.208.075-.078.14-.161.211-.241 15.411 1.653 30.848 2.483 46.285 2.483 15.438 0 30.876-.83 46.287-2.483.07.08.134.163.209.24.144.149 14.392 15.19 18.891 38.209.699 3.58 3.837 6.062 7.353 6.062.477 0 .961-.045 1.446-.141 4.065-.794 6.717-4.733 5.922-8.799-3.304-16.907-10.88-30.013-16.41-37.794 8.619-1.275 17.225-2.812 25.817-4.605.512.511 1.017 1.026 1.545 1.525 52.067 49.306 88.896 121.789 112.592 221.595 1.646 6.938.218 14.244-3.92 20.049-4.141 5.808-10.589 9.544-17.691 10.25-19.87 1.974-39.878 3.628-59.889 4.961.089-10.146-.063-28.568-1.68-50.519-1.427-19.359-3.707-37.401-6.777-53.627-3.877-20.49-9.046-38.179-15.363-52.573-1.665-3.794-6.092-5.517-9.882-3.854-3.793 1.665-5.519 6.089-3.854 9.882 21.735 49.526 22.756 128.031 22.534 151.631-13.019.762-26.019 1.374-38.974 1.856 6.736-61.717-1.404-124.142-24.26-185.714-1.441-3.884-5.761-5.863-9.642-4.421-3.883 1.441-5.862 5.758-4.421 9.642 23.214 62.535 30.702 125.919 22.259 188.39-.801 5.928-5.889 10.397-11.835 10.397h-80.509c-5.945 0-11.033-4.471-11.835-10.398-8.443-62.468-.954-125.852 22.259-188.389 1.441-3.884-.538-8.2-4.421-9.642-3.889-1.442-8.2.537-9.642 4.421-22.856 61.575-30.996 124.002-24.26 185.718-12.953-.482-25.961-1.102-38.976-1.863-.227-23.595.782-102.063 22.535-151.629 1.664-3.793-.062-8.217-3.854-9.882-3.791-1.662-8.217.061-9.882 3.854-22.848 52.063-24.092 130.856-23.832 156.718-11.859-.79-23.701-1.69-35.482-2.704-4.127-.35-7.76 2.703-8.115 6.83-.354 4.126 2.703 7.76 6.83 8.115 30.353 2.611 61.884 4.542 93.218 5.658 3.694 10.666 13.845 18.194 25.453 18.194h80.509c11.611 0 21.762-7.529 25.457-18.193 39.136-1.392 79.228-4.098 117.81-7.932 11.41-1.133 21.77-7.136 28.423-16.469 6.651-9.328 8.948-21.072 6.3-32.22z"/></g></svg>